# Blender 4.0.2
# www.blender.org
mtllib arrow.mtl
o Cube
o Cube.001
v -0.657363 -1.217744 0.441025
v -0.657363 1.000000 2.153134
v -0.657363 -1.217744 -0.441025
v -0.657363 1.000000 -2.153134
v 0.657363 -1.217744 0.441025
v 0.657363 1.000000 2.153134
v 0.657363 -1.217744 -0.441025
v 0.657363 1.000000 -2.153134
v -0.657363 1.000000 0.803661
v -0.657363 1.000000 -0.803661
v 0.657363 1.000000 -0.803661
v 0.657363 1.000000 0.803661
v -0.657363 3.204659 0.803661
v -0.657363 3.204659 -0.803661
v 0.657363 3.204659 -0.803661
v 0.657363 3.204659 0.803661
v -0.657363 0.167474 2.146807
v -0.657363 0.167474 -2.146808
v 0.657363 0.167474 -2.146808
v 0.657363 0.167474 2.146808
vn -1.0000 -0.0000 -0.0000
vn -0.0000 -0.0076 -1.0000
vn 1.0000 -0.0000 -0.0000
vn -0.0000 -0.0076 1.0000
vn -0.0000 -1.0000 -0.0000
vn -0.0000 1.0000 -0.0000
vn -0.0000 -0.0000 1.0000
vn -0.0000 -0.0000 -1.0000
vn -0.0000 -0.7763 0.6304
vn -0.0000 -0.7763 -0.6304
vt 0.500000 0.000000
vt 0.625000 0.000000
vt 0.625000 0.083333
vt 0.625000 0.166667
vt 0.625000 0.250000
vt 0.500000 0.250000
vt 0.625000 0.500000
vt 0.500000 0.500000
vt 0.625000 0.583333
vt 0.625000 0.666667
vt 0.625000 0.750000
vt 0.500000 0.750000
vt 0.625000 1.000000
vt 0.500000 1.000000
vt 0.125000 0.500000
vt 0.375000 0.500000
vt 0.375000 0.750000
vt 0.125000 0.750000
vt 0.875000 0.666667
vt 0.875000 0.750000
vt 0.875000 0.500000
vt 0.875000 0.583333
vt 0.375000 1.000000
vt 0.375000 0.250000
vt 0.375000 0.000000
s 0
f 17/1/1 2/2/1 9/3/1 10/4/1 4/5/1 18/6/1
f 18/6/2 4/5/2 8/7/2 19/8/2
f 19/8/3 8/7/3 11/9/3 12/10/3 6/11/3 20/12/3
f 20/12/4 6/11/4 2/13/4 17/14/4
f 3/15/5 7/16/5 5/17/5 1/18/5
f 12/10/6 9/19/6 2/20/6 6/11/6
f 8/7/6 4/21/6 10/22/6 11/9/6
f 9/19/7 12/10/7 16/10/7 13/19/7
f 15/9/6 14/22/6 13/19/6 16/10/6
f 12/10/3 11/9/3 15/9/3 16/10/3
f 10/4/1 9/3/1 13/3/1 14/4/1
f 11/9/8 10/22/8 14/22/8 15/9/8
f 5/17/9 20/12/9 17/14/9 1/23/9
f 7/16/3 19/8/3 20/12/3 5/17/3
f 3/24/10 18/6/10 19/8/10 7/16/10
f 1/25/1 17/1/1 18/6/1 3/24/1
