# Blender 4.0.2
# www.blender.org
mtllib skewed_cylinder.mtl
o Cylinder
v 0.000000 -1.000000 -1.000000
v 0.000000 1.000000 -1.000000
v 0.382683 -1.000000 -0.923880
v 0.382683 1.000000 -0.923880
v 0.707107 -1.000000 -0.707107
v 0.707107 1.000000 -0.707107
v 0.923880 -1.000000 -0.382683
v 0.923880 1.000000 -0.382683
v 1.000000 -1.000000 0.000000
v 1.000000 1.000000 0.000000
v 0.923880 -1.000000 0.382683
v 0.923880 1.000000 0.382683
v 0.707107 -1.000000 0.707107
v 0.707107 1.000000 0.707107
v 0.382683 -1.000000 0.923880
v 0.382683 1.000000 0.923880
v 0.000000 -1.000000 1.000000
v 0.000000 1.000000 1.000000
v -0.382683 -1.000000 0.923880
v -0.382683 1.000000 0.923880
v -0.707107 -1.000000 0.707107
v -0.707107 1.000000 0.707107
v -0.923880 -1.000000 0.382683
v -0.923880 1.000000 0.382683
v -1.000000 -1.000000 0.000000
v -1.000000 1.000000 0.000000
v -0.923880 -1.000000 -0.382683
v -0.923880 1.000000 -0.382683
v -0.707107 -1.000000 -0.707107
v -0.707107 1.000000 -0.707107
v -0.382683 -1.000000 -0.923880
v -0.382683 1.000000 -0.923880
v 0.000000 -0.621011 -1.000000
v 0.000000 0.075879 -1.000000
v 0.000000 0.685262 -1.000000
v 0.382683 0.575879 -0.923880
v 0.382683 0.075879 -0.923880
v 0.382683 -0.621011 -0.923880
v 0.707107 0.488372 -0.707107
v 0.707107 0.075879 -0.707107
v 0.707107 -0.621011 -0.707107
v 0.923880 0.422742 -0.382683
v 0.923880 0.048533 -0.382683
v 0.923880 -0.621011 -0.382683
v 1.000000 0.422742 0.000000
v 1.000000 0.048533 0.000000
v 1.000000 -0.621011 0.000000
v 0.923880 0.422742 0.382683
v 0.923880 -0.011628 0.382683
v 0.923880 -0.511628 0.382683
v 0.707107 0.488372 0.707107
v 0.707107 -0.011628 0.707107
v 0.707107 -0.511628 0.707107
v 0.382683 0.488372 0.923880
v 0.382683 0.054002 0.923880
v 0.382683 -0.413183 0.923880
v 0.000000 0.488372 1.000000
v 0.000000 0.086817 1.000000
v 0.000000 -0.309269 1.000000
v -0.382683 0.488372 0.923880
v -0.382683 0.054002 0.923880
v -0.382683 -0.413183 0.923880
v -0.707107 0.488372 0.707107
v -0.707107 -0.011628 0.707107
v -0.707107 -0.511628 0.707107
v -0.923880 0.422742 0.382683
v -0.923880 -0.011628 0.382683
v -0.923880 -0.511628 0.382683
v -1.000000 0.422742 0.000000
v -1.000000 0.048533 0.000000
v -1.000000 -0.621011 0.000000
v -0.923880 0.422742 -0.382683
v -0.923880 0.048533 -0.382683
v -0.923880 -0.621011 -0.382683
v -0.707107 0.488372 -0.707107
v -0.707107 0.075879 -0.707107
v -0.707107 -0.621011 -0.707107
v -0.382683 0.575879 -0.923880
v -0.382683 0.075879 -0.923880
v -0.382683 -0.621011 -0.923880
vn 0.1951 -0.0000 -0.9808
vn 0.5556 -0.0000 -0.8315
vn 0.8315 -0.0000 -0.5556
vn 0.9808 -0.0000 -0.1951
vn 0.9808 -0.0000 0.1951
vn 0.8315 -0.0000 0.5556
vn 0.5556 -0.0000 0.8315
vn 0.1951 -0.0000 0.9808
vn -0.1951 -0.0000 0.9808
vn -0.5556 -0.0000 0.8315
vn -0.8315 -0.0000 0.5556
vn -0.9808 -0.0000 0.1951
vn -0.9808 -0.0000 -0.1951
vn -0.8315 -0.0000 -0.5556
vn -0.5556 -0.0000 -0.8315
vn -0.1951 -0.0000 -0.9808
vt 1.000000 0.872093
vt 1.000000 1.000000
vt 0.937500 1.000000
vt 0.937500 0.872093
vt 0.875000 1.000000
vt 0.875000 0.872093
vt 0.812500 1.000000
vt 0.812500 0.872093
vt 0.750000 1.000000
vt 0.750000 0.872093
vt 0.687500 1.000000
vt 0.687500 0.872093
vt 0.625000 1.000000
vt 0.625000 0.872093
vt 0.562500 1.000000
vt 0.562500 0.872093
vt 0.500000 1.000000
vt 0.500000 0.872093
vt 0.437500 1.000000
vt 0.437500 0.872093
vt 0.375000 1.000000
vt 0.375000 0.872093
vt 0.312500 1.000000
vt 0.312500 0.872093
vt 0.250000 1.000000
vt 0.250000 0.872093
vt 0.187500 1.000000
vt 0.187500 0.872093
vt 0.125000 1.000000
vt 0.125000 0.872093
vt 0.062500 1.000000
vt 0.062500 0.872093
vt 0.000000 1.000000
vt 0.000000 0.872093
vt 0.062500 0.500000
vt 0.062500 0.622093
vt 0.000000 0.622093
vt 0.000000 0.500000
vt 0.062500 0.747093
vt 0.000000 0.747093
vt 0.125000 0.500000
vt 0.125000 0.622093
vt 0.125000 0.747093
vt 0.187500 0.500000
vt 0.187500 0.622093
vt 0.187500 0.747093
vt 0.250000 0.500000
vt 0.250000 0.622093
vt 0.250000 0.747093
vt 0.312500 0.500000
vt 0.312500 0.622093
vt 0.312500 0.747093
vt 0.375000 0.500000
vt 0.375000 0.622093
vt 0.375000 0.747093
vt 0.437500 0.500000
vt 0.437500 0.622093
vt 0.437500 0.747093
vt 0.500000 0.500000
vt 0.500000 0.622093
vt 0.500000 0.747093
vt 0.562500 0.500000
vt 0.562500 0.622093
vt 0.562500 0.747093
vt 0.625000 0.500000
vt 0.625000 0.622093
vt 0.625000 0.747093
vt 0.687500 0.500000
vt 0.687500 0.622093
vt 0.687500 0.747093
vt 0.750000 0.500000
vt 0.750000 0.622093
vt 0.750000 0.747093
vt 0.812500 0.500000
vt 0.812500 0.622093
vt 0.812500 0.747093
vt 0.875000 0.500000
vt 0.875000 0.622093
vt 0.875000 0.747093
vt 0.937500 0.500000
vt 0.937500 0.622093
vt 0.937500 0.747093
vt 1.000000 0.500000
vt 1.000000 0.622093
vt 1.000000 0.747093
s 0
f 35/1/1 2/2/1 4/3/1 36/4/1
f 36/4/2 4/3/2 6/5/2 39/6/2
f 39/6/3 6/5/3 8/7/3 42/8/3
f 42/8/4 8/7/4 10/9/4 45/10/4
f 45/10/5 10/9/5 12/11/5 48/12/5
f 48/12/6 12/11/6 14/13/6 51/14/6
f 51/14/7 14/13/7 16/15/7 54/16/7
f 54/16/8 16/15/8 18/17/8 57/18/8
f 57/18/9 18/17/9 20/19/9 60/20/9
f 60/20/10 20/19/10 22/21/10 63/22/10
f 63/22/11 22/21/11 24/23/11 66/24/11
f 66/24/12 24/23/12 26/25/12 69/26/12
f 69/26/13 26/25/13 28/27/13 72/28/13
f 72/28/14 28/27/14 30/29/14 75/30/14
f 75/30/15 30/29/15 32/31/15 78/32/15
f 78/32/16 32/31/16 2/33/16 35/34/16
f 31/35/16 80/36/16 33/37/16 1/38/16
f 80/36/16 79/39/16 34/40/16 33/37/16
f 79/39/16 78/32/16 35/34/16 34/40/16
f 29/41/15 77/42/15 80/36/15 31/35/15
f 77/42/15 76/43/15 79/39/15 80/36/15
f 76/43/15 75/30/15 78/32/15 79/39/15
f 27/44/14 74/45/14 77/42/14 29/41/14
f 74/45/14 73/46/14 76/43/14 77/42/14
f 73/46/14 72/28/14 75/30/14 76/43/14
f 25/47/13 71/48/13 74/45/13 27/44/13
f 71/48/13 70/49/13 73/46/13 74/45/13
f 70/49/13 69/26/13 72/28/13 73/46/13
f 23/50/12 68/51/12 71/48/12 25/47/12
f 68/51/12 67/52/12 70/49/12 71/48/12
f 67/52/12 66/24/12 69/26/12 70/49/12
f 21/53/11 65/54/11 68/51/11 23/50/11
f 65/54/11 64/55/11 67/52/11 68/51/11
f 64/55/11 63/22/11 66/24/11 67/52/11
f 19/56/10 62/57/10 65/54/10 21/53/10
f 62/57/10 61/58/10 64/55/10 65/54/10
f 61/58/10 60/20/10 63/22/10 64/55/10
f 17/59/9 59/60/9 62/57/9 19/56/9
f 59/60/9 58/61/9 61/58/9 62/57/9
f 58/61/9 57/18/9 60/20/9 61/58/9
f 15/62/8 56/63/8 59/60/8 17/59/8
f 56/63/8 55/64/8 58/61/8 59/60/8
f 55/64/8 54/16/8 57/18/8 58/61/8
f 13/65/7 53/66/7 56/63/7 15/62/7
f 53/66/7 52/67/7 55/64/7 56/63/7
f 52/67/7 51/14/7 54/16/7 55/64/7
f 11/68/6 50/69/6 53/66/6 13/65/6
f 50/69/6 49/70/6 52/67/6 53/66/6
f 49/70/6 48/12/6 51/14/6 52/67/6
f 9/71/5 47/72/5 50/69/5 11/68/5
f 47/72/5 46/73/5 49/70/5 50/69/5
f 46/73/5 45/10/5 48/12/5 49/70/5
f 7/74/4 44/75/4 47/72/4 9/71/4
f 44/75/4 43/76/4 46/73/4 47/72/4
f 43/76/4 42/8/4 45/10/4 46/73/4
f 5/77/3 41/78/3 44/75/3 7/74/3
f 41/78/3 40/79/3 43/76/3 44/75/3
f 40/79/3 39/6/3 42/8/3 43/76/3
f 3/80/2 38/81/2 41/78/2 5/77/2
f 38/81/2 37/82/2 40/79/2 41/78/2
f 37/82/2 36/4/2 39/6/2 40/79/2
f 1/83/1 33/84/1 38/81/1 3/80/1
f 33/84/1 34/85/1 37/82/1 38/81/1
f 34/85/1 35/1/1 36/4/1 37/82/1
