# Blender 4.0.2
# www.blender.org
mtllib whirlpool.mtl
o Cylinder
v 0.000127 -1.000000 -0.000307
v -0.000000 1.000000 -1.956855
v 0.748856 1.000000 -1.807899
v 1.383705 1.000000 -1.383705
v 1.807899 1.000000 -0.748856
v 1.956855 1.000000 -0.000000
v 1.807899 1.000000 0.748856
v 1.383705 1.000000 1.383705
v 0.748856 1.000000 1.807898
v -0.000000 1.000000 1.956855
v -0.748856 1.000000 1.807898
v -1.383705 1.000000 1.383705
v -1.807899 1.000000 0.748856
v -1.956855 1.000000 -0.000000
v -1.807899 1.000000 -0.748856
v -1.383705 1.000000 -1.383705
v -0.748856 1.000000 -1.807899
v 0.000000 -0.496545 -0.348016
v 0.000000 0.003455 -0.848368
v 0.000000 0.503455 -1.278193
v 0.489143 0.503455 -1.180896
v 0.324656 0.003455 -0.783789
v 0.133180 -0.496545 -0.321525
v 0.903819 0.503455 -0.903819
v 0.599886 0.003455 -0.599886
v 0.246085 -0.496545 -0.246085
v 1.180896 0.503455 -0.489143
v 0.783789 0.003455 -0.324656
v 0.321525 -0.496545 -0.133180
v 1.278193 0.503455 -0.000000
v 0.848368 0.003455 -0.000000
v 0.348016 -0.496545 0.000000
v 1.180896 0.503455 0.489143
v 0.783789 0.003455 0.324656
v 0.321525 -0.496545 0.133180
v 0.903819 0.503455 0.903819
v 0.599886 0.003455 0.599886
v 0.246085 -0.496545 0.246085
v 0.489143 0.503455 1.180896
v 0.324656 0.003455 0.783789
v 0.133180 -0.496545 0.321525
v 0.000000 0.503455 1.278193
v 0.000000 0.003455 0.848368
v 0.000000 -0.496545 0.348016
v -0.489143 0.503455 1.180896
v -0.324656 0.003455 0.783789
v -0.133180 -0.496545 0.321525
v -0.903819 0.503455 0.903819
v -0.599886 0.003455 0.599886
v -0.246085 -0.496545 0.246085
v -1.180896 0.503455 0.489143
v -0.783789 0.003455 0.324656
v -0.321525 -0.496545 0.133180
v -1.278193 0.503455 -0.000000
v -0.848368 0.003455 -0.000000
v -0.348016 -0.496545 0.000000
v -1.180896 0.503455 -0.489143
v -0.783789 0.003455 -0.324656
v -0.321525 -0.496545 -0.133180
v -0.903819 0.503455 -0.903819
v -0.599886 0.003455 -0.599886
v -0.246085 -0.496545 -0.246085
v -0.489143 0.503455 -1.180896
v -0.324656 0.003455 -0.783789
v -0.133180 -0.496545 -0.321525
v -0.000000 0.593611 -2.335465
v 0.918452 0.593611 -2.152773
v 1.697078 0.593611 -1.632511
v 2.217340 0.593611 -0.853886
v 2.400031 0.593611 0.064566
v 2.217340 0.593611 0.983019
v 1.697078 0.593611 1.761644
v 0.918452 0.593612 2.281906
v -0.000000 0.593612 2.464597
v -0.918452 0.593612 2.281906
v -1.697078 0.593611 1.761644
v -2.217340 0.593611 0.983019
v -2.400031 0.593611 0.064566
v -2.217340 0.593611 -0.853886
v -1.697078 0.593611 -1.632511
v -0.918452 0.593611 -2.152773
v -0.000000 0.007668 -2.611674
v 1.024153 0.007668 -2.407957
v 1.892387 0.007668 -1.827821
v 2.472524 0.007668 -0.959587
v 2.676240 0.007668 0.064566
v 2.472524 0.007668 1.088720
v 1.892387 0.007668 1.956954
v 1.024153 0.007668 2.537090
v -0.000000 0.007668 2.740807
v -1.024153 0.007668 2.537090
v -1.892387 0.007668 1.956954
v -2.472524 0.007668 1.088720
v -2.676240 0.007668 0.064566
v -2.472524 0.007668 -0.959587
v -1.892387 0.007668 -1.827821
v -1.024153 0.007668 -2.407957
vn 0.1167 -0.8015 -0.5864
vn 0.3322 -0.8015 -0.4972
vn 0.4972 -0.8015 -0.3322
vn 0.5864 -0.8015 -0.1167
vn 0.5864 -0.8015 0.1167
vn 0.4972 -0.8015 0.3322
vn 0.3322 -0.8015 0.4972
vn 0.1167 -0.8015 0.5864
vn -0.1167 -0.8015 0.5864
vn -0.3322 -0.8015 0.4972
vn -0.4972 -0.8015 0.3322
vn -0.5864 -0.8015 0.1167
vn -0.5864 -0.8015 -0.1167
vn -0.4972 -0.8015 -0.3322
vn -0.3322 -0.8015 -0.4972
vn -0.1167 -0.8015 -0.5864
vn -0.1615 -0.5609 -0.8120
vn -0.1392 -0.7005 -0.7000
vn -0.1492 -0.6446 -0.7498
vn -0.4599 -0.5610 -0.6883
vn -0.3965 -0.7005 -0.5934
vn -0.4247 -0.6446 -0.6357
vn -0.6885 -0.5607 -0.4600
vn -0.5934 -0.7005 -0.3965
vn -0.6357 -0.6446 -0.4247
vn -0.8120 -0.5608 -0.1615
vn -0.7000 -0.7005 -0.1392
vn -0.7498 -0.6446 -0.1492
vn -0.8121 -0.5607 0.1615
vn -0.7000 -0.7005 0.1392
vn -0.7498 -0.6446 0.1492
vn -0.6883 -0.5609 0.4599
vn -0.6883 -0.5611 0.4599
vn -0.5934 -0.7005 0.3965
vn -0.6357 -0.6446 0.4247
vn -0.4600 -0.5608 0.6884
vn -0.3965 -0.7005 0.5934
vn -0.4247 -0.6446 0.6357
vn -0.1615 -0.5609 0.8120
vn -0.1615 -0.5610 0.8119
vn -0.1392 -0.7005 0.7000
vn -0.1492 -0.6446 0.7498
vn 0.1614 -0.5615 0.8116
vn 0.1615 -0.5609 0.8120
vn 0.1392 -0.7005 0.7000
vn 0.1492 -0.6446 0.7498
vn 0.4599 -0.5611 0.6883
vn 0.4599 -0.5610 0.6883
vn 0.3965 -0.7005 0.5934
vn 0.4247 -0.6446 0.6357
vn 0.6884 -0.5608 0.4600
vn 0.6882 -0.5612 0.4598
vn 0.5934 -0.7005 0.3965
vn 0.6357 -0.6446 0.4247
vn 0.8119 -0.5611 0.1615
vn 0.8120 -0.5608 0.1615
vn 0.7000 -0.7005 0.1392
vn 0.7498 -0.6446 0.1492
vn 0.8119 -0.5610 -0.1615
vn 0.7000 -0.7005 -0.1392
vn 0.7498 -0.6446 -0.1492
vn 0.6886 -0.5605 -0.4601
vn 0.6884 -0.5609 -0.4600
vn 0.5934 -0.7005 -0.3965
vn 0.6357 -0.6446 -0.4247
vn 0.4601 -0.5604 -0.6886
vn 0.4600 -0.5608 -0.6884
vn 0.3965 -0.7005 -0.5934
vn 0.4247 -0.6446 -0.6357
vn 0.1616 -0.5604 -0.8123
vn 0.1615 -0.5608 -0.8120
vn 0.1392 -0.7005 -0.7000
vn 0.1492 -0.6446 -0.7498
vn -0.5935 -0.7004 0.3965
vn 0.3554 -0.7687 -0.5319
vn -0.6803 -0.7204 0.1353
vn 0.5435 -0.7568 -0.3631
vn -0.6596 -0.7401 -0.1312
vn 0.6596 -0.7401 -0.1312
vn 0.6803 -0.7204 0.1353
vn -0.5435 -0.7568 -0.3631
vn 0.1440 -0.6746 0.7240
vn 0.5935 -0.7004 0.3965
vn -0.3554 -0.7687 -0.5319
vn -0.1440 -0.6746 0.7240
vn -0.1233 -0.7748 -0.6201
vn -0.4053 -0.6839 0.6066
vn 0.4053 -0.6839 0.6066
vn 0.1233 -0.7748 -0.6201
vn -0.5043 -0.4197 -0.7547
vn 0.5043 -0.4197 0.7547
vn -0.1771 -0.4197 -0.8902
vn -0.1771 -0.4197 0.8902
vn 0.1771 -0.4197 0.8902
vn 0.1771 -0.4197 -0.8902
vn -0.5043 -0.4197 0.7547
vn 0.5043 -0.4197 -0.7547
vn -0.7547 -0.4197 0.5043
vn 0.7547 -0.4197 -0.5043
vn -0.8902 -0.4197 0.1771
vn 0.8902 -0.4197 -0.1771
vn -0.8902 -0.4197 -0.1771
vn 0.8902 -0.4197 0.1771
vn -0.7547 -0.4197 -0.5043
vn 0.7547 -0.4197 0.5043
vt 1.000000 0.751728
vt 1.000000 1.000000
vt 0.937500 1.000000
vt 0.937500 0.751728
vt 0.875000 1.000000
vt 0.875000 0.751728
vt 0.812500 1.000000
vt 0.812500 0.751728
vt 0.750000 1.000000
vt 0.750000 0.751728
vt 0.687500 1.000000
vt 0.687500 0.751728
vt 0.625000 1.000000
vt 0.625000 0.751728
vt 0.562500 1.000000
vt 0.562500 0.751728
vt 0.500000 1.000000
vt 0.500000 0.751728
vt 0.437500 1.000000
vt 0.437500 0.751728
vt 0.375000 1.000000
vt 0.375000 0.751728
vt 0.312500 1.000000
vt 0.312500 0.751728
vt 0.250000 1.000000
vt 0.250000 0.751728
vt 0.187500 1.000000
vt 0.187500 0.751728
vt 0.125000 1.000000
vt 0.125000 0.751728
vt 0.062500 1.000000
vt 0.062500 0.751728
vt 0.000000 1.000000
vt 0.000000 0.751728
vt 0.062500 0.000000
vt 0.062500 0.251728
vt 0.000000 0.251728
vt 0.062500 0.501728
vt 0.000000 0.501728
vt 0.125000 0.000000
vt 0.125000 0.251728
vt 0.125000 0.501728
vt 0.187500 0.000000
vt 0.187500 0.251728
vt 0.187500 0.501728
vt 0.250000 0.000000
vt 0.250000 0.251728
vt 0.250000 0.501728
vt 0.312500 0.000000
vt 0.312500 0.251728
vt 0.312500 0.501728
vt 0.375000 0.000000
vt 0.375000 0.251728
vt 0.375000 0.501728
vt 0.437500 0.000000
vt 0.437500 0.251728
vt 0.437500 0.501728
vt 0.500000 0.000000
vt 0.500000 0.251728
vt 0.500000 0.501728
vt 0.562500 0.000000
vt 0.562500 0.251728
vt 0.562500 0.501728
vt 0.625000 0.000000
vt 0.625000 0.251728
vt 0.625000 0.501728
vt 0.687500 0.000000
vt 0.687500 0.251728
vt 0.687500 0.501728
vt 0.750000 0.000000
vt 0.750000 0.251728
vt 0.750000 0.501728
vt 0.812500 0.000000
vt 0.812500 0.251728
vt 0.812500 0.501728
vt 0.875000 0.000000
vt 0.875000 0.251728
vt 0.875000 0.501728
vt 0.937500 0.000000
vt 0.937500 0.251728
vt 0.937500 0.501728
vt 1.000000 0.000000
vt 1.000000 0.251728
vt 1.000000 0.501728
s 0
f 20/1/1 2/2/1 3/3/1 21/4/1
f 21/4/2 3/3/2 4/5/2 24/6/2
f 24/6/3 4/5/3 5/7/3 27/8/3
f 27/8/4 5/7/4 6/9/4 30/10/4
f 30/10/5 6/9/5 7/11/5 33/12/5
f 33/12/6 7/11/6 8/13/6 36/14/6
f 36/14/7 8/13/7 9/15/7 39/16/7
f 39/16/8 9/15/8 10/17/8 42/18/8
f 42/18/9 10/17/9 11/19/9 45/20/9
f 45/20/10 11/19/10 12/21/10 48/22/10
f 48/22/11 12/21/11 13/23/11 51/24/11
f 51/24/12 13/23/12 14/25/12 54/26/12
f 54/26/13 14/25/13 15/27/13 57/28/13
f 57/28/14 15/27/14 16/29/14 60/30/14
f 60/30/15 16/29/15 17/31/15 63/32/15
f 63/32/16 17/31/16 2/33/16 20/34/16
f 1/35/17 65/36/17 18/37/17
f 65/36/18 64/38/18 19/39/18 18/37/18
f 64/38/19 63/32/19 20/34/19 19/39/19
f 1/40/20 62/41/20 65/36/20
f 62/41/21 61/42/21 64/38/21 65/36/21
f 61/42/22 60/30/22 63/32/22 64/38/22
f 1/43/23 59/44/23 62/41/23
f 59/44/24 58/45/24 61/42/24 62/41/24
f 58/45/25 57/28/25 60/30/25 61/42/25
f 1/46/26 56/47/26 59/44/26
f 56/47/27 55/48/27 58/45/27 59/44/27
f 55/48/28 54/26/28 57/28/28 58/45/28
f 1/49/29 53/50/29 56/47/29
f 53/50/30 52/51/30 55/48/30 56/47/30
f 52/51/31 51/24/31 54/26/31 55/48/31
f 1/52/32 50/53/33 53/50/32
f 50/53/34 49/54/34 52/51/34 53/50/34
f 49/54/35 48/22/35 51/24/35 52/51/35
f 1/55/36 47/56/36 50/53/36
f 47/56/37 46/57/37 49/54/37 50/53/37
f 46/57/38 45/20/38 48/22/38 49/54/38
f 1/58/39 44/59/39 47/56/40
f 44/59/41 43/60/41 46/57/41 47/56/41
f 43/60/42 42/18/42 45/20/42 46/57/42
f 1/61/43 41/62/43 44/59/44
f 41/62/45 40/63/45 43/60/45 44/59/45
f 40/63/46 39/16/46 42/18/46 43/60/46
f 1/64/47 38/65/48 41/62/48
f 38/65/49 37/66/49 40/63/49 41/62/49
f 37/66/50 36/14/50 39/16/50 40/63/50
f 1/67/51 35/68/52 38/65/51
f 35/68/53 34/69/53 37/66/53 38/65/53
f 34/69/54 33/12/54 36/14/54 37/66/54
f 1/70/55 32/71/56 35/68/55
f 32/71/57 31/72/57 34/69/57 35/68/57
f 31/72/58 30/10/58 33/12/58 34/69/58
f 1/73/59 29/74/59 32/71/59
f 29/74/60 28/75/60 31/72/60 32/71/60
f 28/75/61 27/8/61 30/10/61 31/72/61
f 1/76/62 26/77/63 29/74/63
f 26/77/64 25/78/64 28/75/64 29/74/64
f 25/78/65 24/6/65 27/8/65 28/75/65
f 1/79/66 23/80/66 26/77/67
f 23/80/68 22/81/68 25/78/68 26/77/68
f 22/81/69 21/4/69 24/6/69 25/78/69
f 1/82/70 18/83/71 23/80/71
f 18/83/72 19/84/72 22/81/72 23/80/72
f 19/84/73 20/1/73 21/4/73 22/81/73
f 5/7/74 4/5/74 68/5/74 69/7/74
f 12/21/75 11/19/75 75/19/75 76/21/75
f 6/9/76 5/7/76 69/7/76 70/9/76
f 13/23/77 12/21/77 76/21/77 77/23/77
f 7/11/78 6/9/78 70/9/78 71/11/78
f 14/25/79 13/23/79 77/23/79 78/25/79
f 15/27/80 14/25/80 78/25/80 79/27/80
f 8/13/81 7/11/81 71/11/81 72/13/81
f 2/33/82 17/31/82 81/31/82 66/33/82
f 16/29/83 15/27/83 79/27/83 80/29/83
f 9/15/84 8/13/84 72/13/84 73/15/84
f 3/3/85 2/2/85 66/2/85 67/3/85
f 10/17/86 9/15/86 73/15/86 74/17/86
f 4/5/87 3/3/87 67/3/87 68/5/87
f 17/31/88 16/29/88 80/29/88 81/31/88
f 11/19/89 10/17/89 74/17/89 75/19/89
f 73/15/90 72/13/90 88/13/90 89/15/90
f 81/31/91 80/29/91 96/29/91 97/31/91
f 74/17/92 73/15/92 89/15/92 90/17/92
f 67/3/93 66/2/93 82/2/93 83/3/93
f 66/33/94 81/31/94 97/31/94 82/33/94
f 75/19/95 74/17/95 90/17/95 91/19/95
f 68/5/96 67/3/96 83/3/96 84/5/96
f 76/21/97 75/19/97 91/19/97 92/21/97
f 69/7/98 68/5/98 84/5/98 85/7/98
f 77/23/99 76/21/99 92/21/99 93/23/99
f 70/9/100 69/7/100 85/7/100 86/9/100
f 78/25/101 77/23/101 93/23/101 94/25/101
f 71/11/102 70/9/102 86/9/102 87/11/102
f 79/27/103 78/25/103 94/25/103 95/27/103
f 72/13/104 71/11/104 87/11/104 88/13/104
f 80/29/105 79/27/105 95/27/105 96/29/105
